<svg width="24" height="25" viewBox="0 0 24 25" fill="none" xmlns="http://www.w3.org/2000/svg">
<mask id="mask0_1_3193" style="mask-type:alpha" maskUnits="userSpaceOnUse" x="0" y="0" width="24" height="25">
<g clip-path="url(#clip0_1_3193)">
<g clip-path="url(#clip1_1_3193)">
<path d="M15.5562 4.77563H7.86145L7.9211 4.89493C8.39829 6.26686 8.63689 7.69844 8.63689 9.24931C8.63689 10.7405 8.39829 12.2318 7.9211 13.6037L7.86145 13.723H15.5562C16.0334 12.3511 16.272 10.8598 16.272 9.30896C16.272 7.63879 16.0334 6.14756 15.5562 4.77563Z" fill="white"/>
<path d="M22.3563 8.29492H17.7633V8.35457C18.0616 9.18966 18.1808 10.0247 18.1808 10.9791C18.1808 11.8739 18.0616 12.7686 17.7633 13.6037V13.6633H22.3563C22.6545 12.8283 22.7738 11.9335 22.7738 11.0388C22.7738 10.0247 22.6545 9.13001 22.3563 8.29492Z" fill="white"/>
<path d="M5.95272 8.29492H1.35974V8.35457C1.65799 9.18966 1.77729 10.0247 1.77729 10.9791C1.77729 11.8739 1.65799 12.7686 1.35974 13.6037V13.6633H5.89307C6.19132 12.8283 6.31062 11.9335 6.31062 11.0388C6.37026 10.0247 6.19132 9.13001 5.95272 8.29492Z" fill="white"/>
<path d="M4.70012 5.07373H2.91064C3.02994 5.37198 3.08959 5.72987 3.08959 6.08777C3.08959 6.44566 3.02994 6.80355 2.91064 7.1018H4.70012C4.81941 6.80355 4.87906 6.44566 4.87906 6.08777C4.87906 5.72987 4.81941 5.37198 4.70012 5.07373Z" fill="white"/>
<path d="M20.9843 5.07373H19.1948C19.3141 5.37198 19.3738 5.72987 19.3738 6.08777C19.3738 6.44566 19.3141 6.80355 19.1948 7.1018H20.9843C21.1036 6.80355 21.1632 6.44566 21.1632 6.08777C21.1632 5.72987 21.1036 5.37198 20.9843 5.07373Z" fill="white"/>
<path d="M12.9316 0.600098H10.5457V0.659747C10.665 1.07729 10.7843 1.55448 10.7843 1.97203C10.7843 2.44922 10.7246 2.86676 10.5457 3.28431V3.34395H12.9316C13.0509 2.92641 13.1702 2.44922 13.1702 1.97203C13.1702 1.49483 13.1106 1.07729 12.9316 0.600098Z" fill="white"/>
<path d="M19.6123 20.4035L22.2369 15.3333L1.30005 15.2737L4.34215 20.3439H11.6193V22.193C11.2018 22.3719 10.9035 22.7895 10.9035 23.2667C10.9035 23.8631 11.3211 24.3403 11.9176 24.4C11.9772 24.4 11.9772 24.4 12.0369 24.4C12.6334 24.4 13.1702 23.9228 13.1702 23.2667C13.1702 22.7895 12.872 22.3719 12.4544 22.193V20.3439L19.6123 20.4035Z" fill="white"/>
</g>
</g>
</mask>
<g mask="url(#mask0_1_3193)">
<rect y="0.5" width="24" height="24" rx="4" fill="white"/>
</g>
<defs>
<clipPath id="clip0_1_3193">
<rect width="24" height="24" fill="white" transform="translate(0 0.5)"/>
</clipPath>
<clipPath id="clip1_1_3193">
<rect width="24" height="24" fill="white" transform="translate(0 0.5)"/>
</clipPath>
</defs>
</svg>
