<svg width="24" height="25" viewBox="0 0 24 25" fill="none" xmlns="http://www.w3.org/2000/svg">
<path d="M1.5 4.19C1.5 3.81 1.768 3.5 2.099 3.5H21.9C22.231 3.5 22.499 3.81 22.499 4.19C22.499 4.572 22.231 4.881 21.9 4.881H2.1C1.769 4.881 1.501 4.572 1.501 4.191L1.5 4.19ZM1.5 12.5C1.5 12.118 1.768 11.81 2.099 11.81H17.4C17.73 11.81 17.998 12.118 17.998 12.5C17.998 12.882 17.73 13.19 17.4 13.19H2.099C1.768 13.19 1.5 12.882 1.5 12.5ZM2.099 20.119C1.768 20.119 1.5 20.428 1.5 20.809C1.5 21.191 1.768 21.5 2.099 21.5H21.9C22.231 21.5 22.499 21.19 22.499 20.81C22.499 20.428 22.231 20.119 21.9 20.119H2.099Z" fill="#E1E5EA"/>
</svg>
