<svg width="24" height="25" viewBox="0 0 24 25" fill="none" xmlns="http://www.w3.org/2000/svg">
<mask id="mask0_1_3249" style="mask-type:alpha" maskUnits="userSpaceOnUse" x="0" y="0" width="24" height="25">
<g clip-path="url(#clip0_1_3249)">
<path fill-rule="evenodd" clip-rule="evenodd" d="M14.3 10.2V4.8H19.7V10.2H14.3ZM13 4.5C13 3.94772 13.4477 3.5 14 3.5H20C20.5523 3.5 21 3.94772 21 4.5V10.5C21 11.0523 20.5523 11.5 20 11.5H14C13.4477 11.5 13 11.0523 13 10.5V4.5ZM14.3 20.2V14.8H19.7V20.2H14.3ZM13 14.5C13 13.9477 13.4477 13.5 14 13.5H20C20.5523 13.5 21 13.9477 21 14.5V20.5C21 21.0523 20.5523 21.5 20 21.5H14C13.4477 21.5 13 21.0523 13 20.5V14.5ZM4.3 14.8V20.2H9.7V14.8H4.3ZM4 13.5C3.44772 13.5 3 13.9477 3 14.5V20.5C3 21.0523 3.44772 21.5 4 21.5H10C10.5523 21.5 11 21.0523 11 20.5V14.5C11 13.9477 10.5523 13.5 10 13.5H4ZM4.3 10.2V4.8H9.7V10.2H4.3ZM3 4.5C3 3.94772 3.44772 3.5 4 3.5H10C10.5523 3.5 11 3.94772 11 4.5V10.5C11 11.0523 10.5523 11.5 10 11.5H4C3.44772 11.5 3 11.0523 3 10.5V4.5Z" fill="#E1E5EA"/>
</g>
</mask>
<g mask="url(#mask0_1_3249)">
<rect y="0.5" width="24" height="24" rx="4" fill="white"/>
</g>
<defs>
<clipPath id="clip0_1_3249">
<rect width="24" height="24" fill="white" transform="translate(0 0.5)"/>
</clipPath>
</defs>
</svg>
