<svg width="24" height="25" viewBox="0 0 24 25" fill="none" xmlns="http://www.w3.org/2000/svg">
<mask id="mask0_1_3208" style="mask-type:alpha" maskUnits="userSpaceOnUse" x="0" y="0" width="24" height="25">
<g clip-path="url(#clip0_1_3208)">
<path d="M21.4141 17.7734H17.8217C18.9613 16.2603 19.5781 14.4277 19.5781 12.5C19.5781 7.64258 15.6472 3.71094 10.7891 3.71094C5.9316 3.71094 2 7.64191 2 12.5C2 17.3575 5.93098 21.2891 10.7891 21.2891H21.4141C21.7377 21.2891 22 21.0267 22 20.7031V18.3594C22 18.0358 21.7377 17.7734 21.4141 17.7734ZM3.17188 12.5C3.17188 8.29988 6.58895 4.88281 10.7891 4.88281C14.9892 4.88281 18.4062 8.29988 18.4062 12.5C18.4062 16.7001 14.9892 20.1172 10.7891 20.1172C6.58895 20.1172 3.17188 16.7001 3.17188 12.5ZM20.8281 20.1172H15.1802C15.7447 19.7905 16.2756 19.3986 16.7637 18.9453H20.8281V20.1172Z" fill="white"/>
<path d="M16.4266 14.2009L13.1791 12.8559C12.8802 12.7322 12.5376 12.8739 12.4136 13.1727C12.2363 13.6004 11.8893 13.9473 11.4617 14.1247C11.1629 14.2486 11.0211 14.5912 11.1448 14.8901L12.4899 18.1376C12.5494 18.2813 12.6636 18.3954 12.8073 18.4549C12.9489 18.5133 13.1103 18.5151 13.2562 18.4544C14.8215 17.8036 16.0925 16.5326 16.7434 14.9672C16.803 14.8236 16.8032 14.6621 16.7438 14.5184C16.6845 14.3746 16.5703 14.2604 16.4266 14.2009ZM13.3354 17.1163L12.4287 14.9272C12.738 14.7172 13.0063 14.4489 13.2163 14.1397L15.4054 15.0463C14.9241 15.9124 14.2014 16.6351 13.3354 17.1163Z" fill="white"/>
<path d="M10.1163 14.1247C9.68871 13.9473 9.34175 13.6004 9.16445 13.1728C9.0405 12.874 8.69789 12.7321 8.39898 12.8559L5.15152 14.201C5.00781 14.2605 4.89367 14.3747 4.83426 14.5184C4.77484 14.6622 4.77496 14.8236 4.83469 14.9673C5.48551 16.5326 6.75656 17.8036 8.32187 18.4544C8.46441 18.5137 8.62582 18.5148 8.7707 18.4549C8.91445 18.3955 9.02867 18.2813 9.08816 18.1376L10.4332 14.8901C10.557 14.5912 10.4152 14.2486 10.1163 14.1247ZM8.24277 17.1163C7.37672 16.6351 6.65406 15.9124 6.17281 15.0463L8.36179 14.1397C8.57175 14.449 8.84011 14.7173 9.14937 14.9273L8.24277 17.1163Z" fill="white"/>
<path d="M5.15154 10.7991L8.399 12.1441C8.69916 12.2684 9.04104 12.1248 9.16447 11.8273C9.34182 11.3996 9.68873 11.0527 10.1163 10.8754C10.4152 10.7514 10.557 10.4088 10.4332 10.1099L9.08818 6.86245C9.02869 6.71874 8.91447 6.60459 8.77072 6.54518C8.62701 6.48577 8.46553 6.48592 8.32189 6.54561C6.75654 7.19643 5.48552 8.46749 4.8347 10.0328C4.77498 10.1764 4.77482 10.3379 4.83427 10.4816C4.89373 10.6253 5.00787 10.7396 5.15154 10.7991ZM8.24279 7.88374L9.14939 10.0727C8.84014 10.2827 8.57178 10.551 8.36182 10.8603L6.17283 9.9537C6.65408 9.08764 7.37678 8.36495 8.24279 7.88374Z" fill="white"/>
<path d="M10.7891 13.0859C11.1127 13.0859 11.375 12.8236 11.375 12.5C11.375 12.1764 11.1127 11.9141 10.7891 11.9141C10.4655 11.9141 10.2031 12.1764 10.2031 12.5C10.2031 12.8236 10.4655 13.0859 10.7891 13.0859Z" fill="white"/>
<path d="M11.4618 10.8753C11.8894 11.0527 12.2364 11.3996 12.4137 11.8273C12.5373 12.1251 12.8794 12.2683 13.1792 12.1441L16.4267 10.7991C16.5704 10.7396 16.6846 10.6254 16.744 10.4816C16.8034 10.3379 16.8032 10.1764 16.7435 10.0328C16.0927 8.46749 14.8216 7.19643 13.2563 6.54561C13.1127 6.48592 12.9512 6.48577 12.8075 6.54518C12.6637 6.60459 12.5495 6.71874 12.49 6.86245L11.145 10.11C11.0212 10.4088 11.163 10.7514 11.4618 10.8753ZM13.3354 7.88374C14.2015 8.36495 14.9242 9.08764 15.4054 9.9537L13.2164 10.8603C13.0064 10.551 12.738 10.2827 12.4288 10.0727L13.3354 7.88374Z" fill="white"/>
</g>
</mask>
<g mask="url(#mask0_1_3208)">
<rect y="0.5" width="24" height="24" rx="4" fill="white"/>
</g>
<defs>
<clipPath id="clip0_1_3208">
<rect width="24" height="24" fill="white" transform="translate(0 0.5)"/>
</clipPath>
</defs>
</svg>
