<svg width="24" height="25" viewBox="0 0 24 25" fill="none" xmlns="http://www.w3.org/2000/svg">
<mask id="mask0_1_3222" style="mask-type:alpha" maskUnits="userSpaceOnUse" x="0" y="0" width="24" height="25">
<g clip-path="url(#clip0_1_3222)">
<g clip-path="url(#clip1_1_3222)">
<mask id="mask1_1_3222" style="mask-type:luminance" maskUnits="userSpaceOnUse" x="0" y="0" width="24" height="25">
<path d="M24 0.5H0V24.5H24V0.5Z" fill="white"/>
</mask>
<g mask="url(#mask1_1_3222)">
<path fill-rule="evenodd" clip-rule="evenodd" d="M3.43489 17.0651C3.67506 17.3053 3.67506 17.6947 3.43489 17.9349L1.43489 19.9349C1.19471 20.1751 0.805312 20.1751 0.56514 19.9349C0.324967 19.6947 0.324967 19.3053 0.56514 19.0651L2.56514 17.0651C2.80532 16.825 3.19471 16.825 3.43489 17.0651Z" fill="white"/>
<path fill-rule="evenodd" clip-rule="evenodd" d="M7.43489 21.0651C7.67506 21.3053 7.67506 21.6947 7.43489 21.9349L5.43489 23.9349C5.19471 24.1751 4.80532 24.1751 4.56514 23.9349C4.32497 23.6947 4.32497 23.3053 4.56514 23.0651L6.56514 21.0651C6.80532 20.825 7.19471 20.825 7.43489 21.0651Z" fill="white"/>
<path fill-rule="evenodd" clip-rule="evenodd" d="M4.93488 19.5651C5.17506 19.8053 5.17506 20.1947 4.93488 20.4349L1.43489 23.9349C1.19471 24.1751 0.805312 24.1751 0.56514 23.9349C0.324967 23.6947 0.324967 23.3053 0.56514 23.0651L4.06514 19.5651C4.30532 19.325 4.69471 19.325 4.93488 19.5651Z" fill="white"/>
<path fill-rule="evenodd" clip-rule="evenodd" d="M9.35082 15.4034C9.68033 15.321 10.0142 15.5213 10.0966 15.8508L11.0966 19.8508C11.179 20.1804 10.9787 20.5143 10.6491 20.5966C10.3196 20.679 9.98572 20.4787 9.90334 20.1492L8.90334 16.1492C8.82096 15.8196 9.0213 15.4857 9.35082 15.4034Z" fill="white"/>
<path fill-rule="evenodd" clip-rule="evenodd" d="M17.7159 15.4242C17.3979 15.3049 17.0434 15.4661 16.9241 15.7841L15.4241 19.7841C15.3049 20.1021 15.466 20.4566 15.7841 20.5759C16.1021 20.6951 16.4566 20.534 16.5758 20.216L18.0758 16.216C18.1951 15.8979 18.034 15.5434 17.7159 15.4242Z" fill="white"/>
<path fill-rule="evenodd" clip-rule="evenodd" d="M13.5 2.11501C8.59296 2.11501 4.61501 6.09296 4.61501 11C4.61501 15.9071 8.59296 19.885 13.5 19.885C18.407 19.885 22.385 15.9071 22.385 11C22.385 6.09296 18.407 2.11501 13.5 2.11501ZM3.38501 11C3.38501 5.41365 7.91365 0.88501 13.5 0.88501C19.0864 0.88501 23.615 5.41365 23.615 11C23.615 16.5864 19.0864 21.115 13.5 21.115C7.91365 21.115 3.38501 16.5864 3.38501 11Z" fill="white"/>
<path fill-rule="evenodd" clip-rule="evenodd" d="M13.1588 6.5883C13.3654 6.45059 13.6346 6.45059 13.8411 6.5883L17.3411 8.92164C17.5604 9.06783 17.6622 9.33748 17.5941 9.59209L16.4275 13.9588C16.3556 14.2278 16.1118 14.415 15.8333 14.415H11.1667C10.8881 14.415 10.6444 14.2278 10.5725 13.9588L9.40583 9.59209C9.3378 9.33748 9.43957 9.06783 9.65885 8.92164L13.1588 6.5883ZM10.7079 9.70052L11.6389 13.185H15.3611L16.292 9.70052L13.5 7.83915L10.7079 9.70052Z" fill="white"/>
<path fill-rule="evenodd" clip-rule="evenodd" d="M6.33104 4.40868C6.65762 4.31537 6.99802 4.50448 7.09133 4.83106L8.00846 8.04103L10.2284 8.929C10.5438 9.05515 10.6972 9.41306 10.571 9.72842C10.4449 10.0438 10.087 10.1972 9.77159 10.071L7.27159 9.07103C7.09493 9.00037 6.96092 8.85191 6.90865 8.66897L5.90865 5.16897C5.81534 4.84238 6.00445 4.50199 6.33104 4.40868Z" fill="white"/>
<path fill-rule="evenodd" clip-rule="evenodd" d="M9.79321 1.95161C9.98563 1.67172 10.3685 1.60081 10.6484 1.79324L13.8484 3.99323C14.0153 4.10797 14.115 4.29751 14.115 4.50002V7.00003C14.115 7.33968 13.8396 7.61503 13.5 7.61502C13.1603 7.61502 12.885 7.33968 12.885 7.00002V4.82353L9.95158 2.80681C9.67169 2.61439 9.60078 2.2315 9.79321 1.95161Z" fill="white"/>
<path fill-rule="evenodd" clip-rule="evenodd" d="M20.6689 4.40868C20.3424 4.31537 20.002 4.50448 19.9086 4.83106L18.9915 8.04103L16.7716 8.929C16.4562 9.05515 16.3028 9.41306 16.429 9.72842C16.5551 10.0438 16.913 10.1972 17.2284 10.071L19.7284 9.07103C19.905 9.00037 20.0391 8.85191 20.0913 8.66897L21.0913 5.16897C21.1846 4.84238 20.9955 4.50199 20.6689 4.40868Z" fill="white"/>
<path fill-rule="evenodd" clip-rule="evenodd" d="M17.2068 1.95161C17.0144 1.67172 16.6315 1.60081 16.3516 1.79324L13.1516 3.99323C12.9847 4.10797 12.885 4.29751 12.885 4.50002V7.00003C12.885 7.33968 13.1603 7.61503 13.5 7.61502C13.8396 7.61502 14.115 7.33968 14.115 7.00002V4.82353L17.0484 2.80681C17.3283 2.61439 17.3992 2.2315 17.2068 1.95161Z" fill="white"/>
<path fill-rule="evenodd" clip-rule="evenodd" d="M8.03396 8.1949C8.20248 8.4898 8.10002 8.86548 7.80512 9.03399L4.30512 11.034C4.01022 11.2025 3.63454 11.1001 3.46602 10.8051C3.29751 10.5102 3.39996 10.1346 3.69487 9.96605L7.19487 7.96605C7.48977 7.79754 7.86545 7.89999 8.03396 8.1949Z" fill="white"/>
<path fill-rule="evenodd" clip-rule="evenodd" d="M18.966 8.1949C18.7975 8.4898 18.9 8.86548 19.1949 9.03399L22.6949 11.034C22.9898 11.2025 23.3654 11.1001 23.534 10.8051C23.7025 10.5102 23.6 10.1346 23.3051 9.96605L19.8051 7.96605C19.5102 7.79754 19.1345 7.89999 18.966 8.1949Z" fill="white"/>
<path fill-rule="evenodd" clip-rule="evenodd" d="M11.369 13.508C11.6407 13.7118 11.6958 14.0973 11.492 14.369L9.99201 16.369C9.87587 16.5239 9.69359 16.615 9.50001 16.615H5.50001C5.16036 16.615 4.88501 16.3397 4.88501 16C4.88501 15.6604 5.16036 15.385 5.50001 15.385H9.19251L10.508 13.631C10.7118 13.3593 11.0973 13.3042 11.369 13.508Z" fill="white"/>
<path fill-rule="evenodd" clip-rule="evenodd" d="M15.631 13.508C15.3593 13.7118 15.3042 14.0973 15.508 14.369L17.008 16.369C17.1241 16.5239 17.3064 16.615 17.5 16.615H21.5C21.8396 16.615 22.115 16.3397 22.115 16C22.115 15.6604 21.8396 15.385 21.5 15.385H17.8075L16.492 13.631C16.2882 13.3593 15.9027 13.3042 15.631 13.508Z" fill="white"/>
</g>
</g>
</g>
</mask>
<g mask="url(#mask0_1_3222)">
<rect y="0.5" width="24" height="24" rx="4" fill="white"/>
</g>
<defs>
<clipPath id="clip0_1_3222">
<rect width="24" height="24" fill="white" transform="translate(0 0.5)"/>
</clipPath>
<clipPath id="clip1_1_3222">
<rect width="24" height="24" fill="white" transform="translate(0 0.5)"/>
</clipPath>
</defs>
</svg>
