<svg width="24" height="25" viewBox="0 0 24 25" fill="none" xmlns="http://www.w3.org/2000/svg">
<mask id="mask0_1_3166" style="mask-type:alpha" maskUnits="userSpaceOnUse" x="0" y="0" width="24" height="25">
<g clip-path="url(#clip0_1_3166)">
<path fill-rule="evenodd" clip-rule="evenodd" d="M19.4 10.7665L20.7333 11.9665C21 12.1998 21.0333 12.6331 20.7666 12.9331C20.5333 13.1998 20.1 13.1998 19.8333 12.9665L19.4 12.5665V19.0998C19.4 19.8331 18.8 20.4331 18.0666 20.4331H14.5333C13.8 20.4331 13.2 19.8331 13.2 19.0998V15.1665H10.8333V19.0665C10.8333 19.7998 10.2333 20.3998 9.49997 20.3998H5.96664C5.23331 20.3998 4.63331 19.7998 4.63331 19.0665V12.4998L4.16664 12.9331C3.89997 13.1998 3.49997 13.1665 3.23331 12.8998C2.96664 12.6331 2.99997 12.1998 3.26664 11.9665L11.1 4.8998C11.6333 4.43314 12.4 4.43314 12.9 4.8998L17.4 8.96647V6.76647H19.4V10.7665ZM14.5 15.1665V19.1331H18.0666L18.0333 11.3331L12 5.89981L5.96664 11.3331V19.0998H9.49997V15.1665C9.49997 14.4331 10.1 13.8331 10.8333 13.8331H13.1666C13.9 13.8331 14.5 14.4331 14.5 15.1665ZM10.1999 11.1665C10.1999 10.1665 10.9999 9.36652 11.9999 9.36652C12.9999 9.36652 13.7999 10.1665 13.7999 11.1665H10.1999Z" fill="white"/>
</g>
</mask>
<g mask="url(#mask0_1_3166)">
<rect y="0.5" width="24" height="24" rx="4" fill="white"/>
</g>
<defs>
<clipPath id="clip0_1_3166">
<rect width="24" height="24" fill="white" transform="translate(0 0.5)"/>
</clipPath>
</defs>
</svg>
