<svg width="40" height="41" viewBox="0 0 40 41" fill="none" xmlns="http://www.w3.org/2000/svg">
<rect x="0.5" y="1" width="39" height="39" rx="19.5" stroke="#29333D"/>
<path fill-rule="evenodd" clip-rule="evenodd" d="M18.32 12.584C18.5393 12.3608 18.8007 12.1835 19.0891 12.0623C19.3775 11.9411 19.6872 11.8785 20 11.878C20.632 11.878 21.237 12.133 21.68 12.584C22.097 13.007 22.34 13.569 22.37 14.16C23.3474 14.5991 24.1868 15.296 24.798 16.176C25.4991 17.1841 25.8739 18.3831 25.872 19.611V22.418C25.8715 22.7323 25.9943 23.0343 26.214 23.259L27.444 24.508C27.5303 24.5954 27.5888 24.7063 27.6121 24.8269C27.6354 24.9475 27.6225 25.0723 27.575 25.1855C27.5275 25.2987 27.4476 25.3954 27.3453 25.4633C27.2429 25.5312 27.1228 25.5673 27 25.567H23.247V25.833C23.247 26.703 22.907 27.538 22.3 28.156C21.9998 28.4615 21.6419 28.7042 21.247 28.87C20.8522 29.0358 20.4283 29.1215 20 29.122C19.5717 29.1215 19.1479 29.0358 18.753 28.87C18.3581 28.7042 18.0002 28.4615 17.7 28.156C17.0909 27.5365 16.7506 26.7018 16.753 25.833V25.567H13C12.8771 25.5673 12.7569 25.5311 12.6545 25.4631C12.5521 25.3951 12.4721 25.2983 12.4248 25.1848C12.3774 25.0714 12.3646 24.9465 12.3882 24.8259C12.4117 24.7052 12.4705 24.5943 12.557 24.507L13.786 23.259C14.004 23.038 14.128 22.735 14.128 22.419V19.611C14.1242 18.4615 14.4528 17.3354 15.0743 16.3685C15.6958 15.4015 16.5837 14.6349 17.631 14.161C17.6576 13.5684 17.9037 13.0066 18.32 12.584ZM17.997 25.567V25.833C17.997 26.379 18.084 26.617 18.46 27M17.997 25.567H22C22 26.112 21.79 26.9 21.413 27.282C21.229 27.4703 21.0092 27.62 20.7666 27.7224C20.5239 27.8247 20.2633 27.8776 20 27.878C19.472 27.878 18.837 27.382 18.46 27M20 13.122C19.704 13.122 19.418 13.242 19.206 13.457C18.9916 13.676 18.8716 13.9705 18.872 14.277V14.581C18.8722 14.7091 18.8327 14.8342 18.7589 14.9389C18.6851 15.0437 18.5807 15.123 18.46 15.166C16.666 15.811 15.372 17.556 15.372 19.611V22.419C15.372 23.059 15.122 23.676 14.672 24.132L14.486 24.322H25.514L25.327 24.132C24.8766 23.6754 24.625 23.0593 24.627 22.418V19.611C24.6282 18.6371 24.3312 17.6862 23.776 16.886C23.2273 16.0945 22.4458 15.4934 21.54 15.166C21.4193 15.123 21.3149 15.0437 21.2411 14.9389C21.1673 14.8342 21.1278 14.7091 21.128 14.581V14.278C21.128 13.968 21.007 13.673 20.794 13.458C20.6912 13.3512 20.5679 13.2663 20.4314 13.2084C20.295 13.1505 20.1482 13.1208 20 13.121V13.122Z" fill="#E1E5EA"/>
</svg>
