<svg width="148" height="41" viewBox="0 0 148 41" fill="none" xmlns="http://www.w3.org/2000/svg">
<path d="M16.4606 12.804H0V30.564H4.58151V24.786H13.3604L17.3658 30.564H22.496L18.0791 24.7594C19.4509 24.5464 20.4384 24.0405 21.042 23.2417C21.6455 22.4429 21.9473 21.1648 21.9473 19.4607V18.1294C21.9473 17.1175 21.8377 16.3188 21.6455 15.7063C21.4535 15.0939 21.1243 14.5614 20.658 14.0821C20.1641 13.6294 19.6154 13.3099 18.957 13.0969C18.2986 12.9105 17.4755 12.804 16.4606 12.804ZM15.7199 20.8719H4.58151V16.7181H15.7199C16.3508 16.7181 16.7897 16.8246 17.0092 17.011C17.2286 17.1974 17.3658 17.5436 17.3658 18.0495V19.5406C17.3658 20.0732 17.2286 20.4193 17.0092 20.6056C16.7897 20.792 16.3508 20.8719 15.7199 20.8719Z" fill="white"/>
<path d="M29.3129 25.3185V12.804H24.864V25.2121C24.864 26.2238 24.9439 27.0493 25.1304 27.6617C25.3169 28.3008 25.6366 28.8332 26.1161 29.286C26.569 29.7653 27.1018 30.0847 27.7411 30.2711C28.3805 30.4842 29.1797 30.564 30.192 30.564H40.848C41.8337 30.564 42.6329 30.4842 43.2723 30.2711C43.9116 30.0847 44.4444 29.7653 44.9239 29.286C45.3768 28.8332 45.6965 28.3008 45.883 27.6617C46.0696 27.0493 46.176 26.2238 46.176 25.2121V12.804H41.7271V25.3185C41.7271 25.8511 41.5939 26.1973 41.3808 26.3837C41.1677 26.57 40.7415 26.6498 40.1287 26.6498H30.9113C30.2719 26.6498 29.8457 26.57 29.6326 26.3837C29.4195 26.1973 29.3129 25.8511 29.3129 25.3185Z" fill="white"/>
<path d="M61.3889 30.564V16.7181H69.856V12.804H48.544V16.7181H57.011V30.564H61.3889Z" fill="white"/>
<path d="M76.6729 25.3185V12.804H72.224V25.2121C72.224 26.2238 72.304 27.0493 72.4904 27.6617C72.6769 28.3008 72.9966 28.8332 73.4761 29.286C73.929 29.7653 74.4618 30.0847 75.1011 30.2711C75.7405 30.4842 76.5397 30.564 77.552 30.564H88.208C89.1937 30.564 89.9929 30.4842 90.6322 30.2711C91.2716 30.0847 91.8044 29.7653 92.2839 29.286C92.7368 28.8332 93.0565 28.3008 93.243 27.6617C93.4294 27.0493 93.536 26.2238 93.536 25.2121V12.804H89.0871V25.3185C89.0871 25.8511 88.9539 26.1973 88.7408 26.3837C88.5276 26.57 88.1014 26.6498 87.4887 26.6498H78.2713C77.6319 26.6498 77.2057 26.57 76.9926 26.3837C76.7794 26.1973 76.6729 25.8511 76.6729 25.3185Z" fill="white"/>
<path d="M116.336 17.9696V17.6235C116.336 15.9726 115.909 14.7478 115.055 13.9756C114.202 13.2034 112.842 12.804 111.028 12.804H95.904V30.564H111.908C113.722 30.564 115.082 30.1913 115.936 29.4191C116.789 28.6469 117.216 27.422 117.216 25.7713V25.3984C117.216 23.7476 116.789 22.576 115.936 21.8837C115.776 21.7772 115.615 21.6973 115.456 21.6175C115.296 21.5375 115.055 21.4311 114.762 21.3245C115.349 21.005 115.749 20.579 115.989 20.0997C116.202 19.6204 116.336 18.9015 116.336 17.9696ZM100.359 19.9133V16.7181H110.307C110.948 16.7181 111.374 16.8246 111.588 17.011C111.801 17.1974 111.908 17.5436 111.908 18.0495V18.582C111.908 19.1146 111.801 19.4607 111.588 19.647C111.374 19.8335 110.948 19.9133 110.307 19.9133H100.359ZM100.359 26.6498V23.4547H111.214C111.828 23.4547 112.255 23.5611 112.468 23.7476C112.681 23.934 112.815 24.2802 112.815 24.786V25.3185C112.815 25.8511 112.681 26.1973 112.468 26.3837C112.255 26.57 111.828 26.6498 111.214 26.6498H100.359Z" fill="white"/>
<path d="M124.127 16.7181H138.978V12.804H119.584V30.564H139.712V26.6498H124.127V23.6412H138.624L138.978 19.727H124.127V16.7181Z" fill="white"/>
<path d="M144.072 11.9188C145.784 11.9188 147.172 10.5266 147.172 8.80938C147.172 7.09212 145.784 5.7 144.072 5.7C142.358 5.7 140.969 7.09212 140.969 8.80938C140.969 10.5266 142.358 11.9188 144.072 11.9188Z" fill="#F41240"/>
</svg>
