<svg width="24" height="25" viewBox="0 0 24 25" fill="none" xmlns="http://www.w3.org/2000/svg">
<mask id="mask0_1_3269" style="mask-type:alpha" maskUnits="userSpaceOnUse" x="0" y="0" width="24" height="25">
<g clip-path="url(#clip0_1_3269)">
<path fill-rule="evenodd" clip-rule="evenodd" d="M1.65662 7.71123C1.65662 5.39164 3.53702 3.51123 5.85662 3.51123H16.7734C19.093 3.51123 20.9734 5.39163 20.9734 7.71123V13.2996C20.9734 15.6192 19.093 17.4996 16.7734 17.4996H5.85662C3.53702 17.4996 1.65662 15.6192 1.65662 13.2996V7.71123ZM5.85662 4.71123C4.19976 4.71123 2.85662 6.05438 2.85662 7.71123V13.2996C2.85662 14.9564 4.19976 16.2996 5.85662 16.2996H16.7734C18.4303 16.2996 19.7734 14.9564 19.7734 13.2996V7.71123C19.7734 6.05438 18.4303 4.71123 16.7734 4.71123H5.85662Z" fill="#29333D"/>
<path fill-rule="evenodd" clip-rule="evenodd" d="M22.1 16.9001V10.9C22.1 10.5687 22.3686 10.3 22.7 10.3C23.0314 10.3 23.3 10.5687 23.3 10.9V16.9001C23.3 19.2196 21.4196 21.1 19.1 21.1H10.1C9.76863 21.1 9.5 20.8314 9.5 20.5C9.5 20.1687 9.76863 19.9 10.1 19.9H19.1C20.7569 19.9 22.1 18.5569 22.1 16.9001Z" fill="#29333D"/>
<path fill-rule="evenodd" clip-rule="evenodd" d="M9.34009 5.85927C9.54797 5.75936 9.79472 5.78745 9.97482 5.93153L14.9748 9.93153C15.1171 10.0454 15.2 10.2178 15.2 10.4001C15.2 10.5823 15.1171 10.7547 14.9748 10.8686L12.4748 12.8686L9.97482 14.8686C9.79472 15.0127 9.54797 15.0407 9.34009 14.9408C9.13221 14.8409 9 14.6307 9 14.4001V6.40005C9 6.16941 9.13221 5.95918 9.34009 5.85927ZM10.2 13.1517L13.6395 10.4001L10.2 7.64843V13.1517Z" fill="#29333D"/>
</g>
</mask>
<g mask="url(#mask0_1_3269)">
<rect y="0.5" width="24" height="24" rx="4" fill="white"/>
</g>
<defs>
<clipPath id="clip0_1_3269">
<rect width="24" height="24" fill="white" transform="translate(0 0.5)"/>
</clipPath>
</defs>
</svg>
