<svg width="24" height="25" viewBox="0 0 24 25" fill="none" xmlns="http://www.w3.org/2000/svg">
<mask id="mask0_1_3280" style="mask-type:alpha" maskUnits="userSpaceOnUse" x="0" y="0" width="24" height="25">
<g clip-path="url(#clip0_1_3280)">
<path fill-rule="evenodd" clip-rule="evenodd" d="M18 3.5H6C4.34315 3.5 3 4.84315 3 6.5V18.5C3 20.1569 4.34315 21.5 6 21.5H18C19.6569 21.5 21 20.1569 21 18.5V6.5C21 4.84315 19.6569 3.5 18 3.5ZM6 2.5C3.79086 2.5 2 4.29086 2 6.5V18.5C2 20.7091 3.79086 22.5 6 22.5H18C20.2091 22.5 22 20.7091 22 18.5V6.5C22 4.29086 20.2091 2.5 18 2.5H6Z" fill="white"/>
<path d="M17.9018 7.61634C18.5083 7.61634 19 7.12467 19 6.51816C19 5.91165 18.5083 5.41998 17.9018 5.41998C17.2953 5.41998 16.8036 5.91165 16.8036 6.51816C16.8036 7.12467 17.2953 7.61634 17.9018 7.61634Z" fill="white"/>
<path d="M14.1117 7.61633H5.27271V17.5H7.7329V14.2845H12.447L14.5979 17.5H17.3527L14.9809 14.2696C15.7175 14.1511 16.2478 13.8696 16.5719 13.425C16.896 12.9805 17.0581 12.2692 17.0581 11.3209V10.58C17.0581 10.0169 16.9991 9.57232 16.896 9.23148C16.7929 8.89068 16.6161 8.59433 16.3657 8.3276C16.1005 8.07569 15.8059 7.89786 15.4523 7.77932C15.0988 7.6756 14.6568 7.61633 14.1117 7.61633ZM13.714 12.1062H7.7329V9.79457H13.714C14.0528 9.79457 14.2885 9.85384 14.4064 9.95757C14.5242 10.0613 14.5979 10.2539 14.5979 10.5355V11.3653C14.5979 11.6617 14.5242 11.8543 14.4064 11.958C14.2885 12.0618 14.0528 12.1062 13.714 12.1062Z" fill="white"/>
</g>
</mask>
<g mask="url(#mask0_1_3280)">
<rect y="0.5" width="24" height="24" rx="4" fill="white"/>
</g>
<defs>
<clipPath id="clip0_1_3280">
<rect width="24" height="24" fill="white" transform="translate(0 0.5)"/>
</clipPath>
</defs>
</svg>
