<svg width="40" height="41" viewBox="0 0 40 41" fill="none" xmlns="http://www.w3.org/2000/svg">
<rect x="0.5" y="1" width="39" height="39" rx="19.5" stroke="#29333D"/>
<path d="M19.38 22.5C19.38 22.6644 19.4453 22.8221 19.5616 22.9384C19.6779 23.0547 19.8356 23.12 20 23.12C20.1644 23.12 20.3221 23.0547 20.4384 22.9384C20.5547 22.8221 20.62 22.6644 20.62 22.5H19.38ZM20.62 18.5C20.62 18.3356 20.5547 18.1779 20.4384 18.0616C20.3221 17.9453 20.1644 17.88 20 17.88C19.8356 17.88 19.6779 17.9453 19.5616 18.0616C19.4453 18.1779 19.38 18.3356 19.38 18.5H20.62ZM18 19.88C17.8356 19.88 17.6779 19.9453 17.5616 20.0616C17.4453 20.1779 17.38 20.3356 17.38 20.5C17.38 20.6644 17.4453 20.8221 17.5616 20.9384C17.6779 21.0547 17.8356 21.12 18 21.12V19.88ZM22 21.12C22.1644 21.12 22.3221 21.0547 22.4384 20.9384C22.5547 20.8221 22.62 20.6644 22.62 20.5C22.62 20.3356 22.5547 20.1779 22.4384 20.0616C22.3221 19.9453 22.1644 19.88 22 19.88V21.12ZM17.6 29.12H22.4V27.88H17.6V29.12ZM22.4 29.12C24.461 29.12 26.065 28.712 27.138 27.638C28.212 26.565 28.62 24.961 28.62 22.9H27.38C27.38 24.839 26.988 26.035 26.262 26.762C25.535 27.488 24.339 27.88 22.4 27.88V29.12ZM28.62 22.9V18.1H27.38V22.9H28.62ZM28.62 18.1C28.62 16.039 28.212 14.435 27.138 13.362C26.065 12.288 24.461 11.88 22.4 11.88V13.12C24.339 13.12 25.535 13.512 26.262 14.238C26.988 14.965 27.38 16.161 27.38 18.1H28.62ZM22.4 11.88H17.6V13.12H22.4V11.88ZM17.6 11.88C15.539 11.88 13.935 12.288 12.862 13.362C11.788 14.435 11.38 16.039 11.38 18.1H12.62C12.62 16.161 13.012 14.965 13.738 14.238C14.465 13.512 15.661 13.12 17.6 13.12V11.88ZM11.38 18.1V22.9H12.62V18.1H11.38ZM11.38 22.9C11.38 24.961 11.788 26.565 12.862 27.638C13.935 28.712 15.539 29.12 17.6 29.12V27.88C15.661 27.88 14.465 27.488 13.738 26.762C13.012 26.035 12.62 24.839 12.62 22.9H11.38ZM20.62 22.5V18.5H19.38V22.5H20.62ZM18 21.12H22V19.88H18V21.12Z" fill="#E1E5EA"/>
</svg>
