<svg width="25" height="25" viewBox="0 0 25 25" fill="none" xmlns="http://www.w3.org/2000/svg">
<path d="M20.5 20.5L16.5 16.5M18.5 11.5C18.5012 12.4194 18.3207 13.3301 17.9689 14.1795C17.617 15.029 17.1009 15.8006 16.45 16.45C15.3049 17.5952 13.7982 18.3079 12.1865 18.4668C10.5748 18.6256 8.95794 18.2207 7.61134 17.321C6.26474 16.4214 5.27174 15.0826 4.80154 13.5329C4.33134 11.9832 4.41302 10.3184 5.03268 8.82212C5.65234 7.32588 6.77162 6.09078 8.19983 5.32727C9.62803 4.56376 11.2768 4.31908 12.8652 4.63492C14.4536 4.95076 15.8833 5.80757 16.9108 7.05938C17.9382 8.31118 18.4999 9.88052 18.5 11.5Z" stroke="#E1E5EA" stroke-width="1.244" stroke-linecap="round" stroke-linejoin="round"/>
</svg>
