<svg width="24" height="25" viewBox="0 0 24 25" fill="none" xmlns="http://www.w3.org/2000/svg">
<mask id="mask0_1_3175" style="mask-type:alpha" maskUnits="userSpaceOnUse" x="0" y="0" width="24" height="25">
<g clip-path="url(#clip0_1_3175)">
<path fill-rule="evenodd" clip-rule="evenodd" d="M15.2 2.5H8.79999C7.25359 2.5 5.99999 3.7536 5.99999 5.3V14.9C5.99999 16.4464 7.25359 17.7 8.79999 17.7H15.2C16.7464 17.7 18 16.4464 18 14.9V5.3C18 3.7536 16.7464 2.5 15.2 2.5ZM8.79999 1.3C6.59085 1.3 4.79999 3.09087 4.79999 5.3V14.9C4.79999 17.1091 6.59085 18.9 8.79999 18.9H15.2C17.4091 18.9 19.2 17.1091 19.2 14.9V5.3C19.2 3.09087 17.4091 1.3 15.2 1.3H8.79999ZM7.19999 21.9C6.6477 21.9 6.19999 22.3477 6.19999 22.9C6.19999 23.2314 5.93136 23.5 5.59999 23.5C5.26862 23.5 4.99999 23.2314 4.99999 22.9C4.99999 21.685 5.98496 20.7 7.19999 20.7H16.8C18.015 20.7 19 21.685 19 22.9C19 23.2314 18.7313 23.5 18.4 23.5C18.0686 23.5 17.8 23.2314 17.8 22.9C17.8 22.3477 17.3523 21.9 16.8 21.9H7.19999ZM10.4587 8.00742C10.4776 7.86732 10.6101 7.81344 10.7044 7.85607C11.3785 8.16088 12.2476 8.58616 12.8672 8.9992C13.5089 9.42704 14.1617 9.98408 14.6151 10.3955C14.6799 10.4543 14.6799 10.5457 14.6151 10.6045C14.1617 11.0159 13.5089 11.573 12.8672 12.0008C12.2101 12.4388 11.2412 12.7606 10.5584 12.9469C10.519 12.9576 10.4886 12.9498 10.4681 12.9372C10.4485 12.9252 10.4325 12.9058 10.4264 12.8727C10.2756 12.0514 10.2 11.0791 10.2 10.5C10.2 9.97624 10.3293 8.97064 10.4587 8.00742ZM11.1988 6.76265C10.3379 6.37338 9.39015 6.94878 9.26943 7.84765C9.14519 8.7724 8.99999 9.87576 8.99999 10.5C8.99999 11.1506 9.08191 12.1954 9.24615 13.0894C9.38695 13.8565 10.1445 14.3036 10.8741 14.1046C11.5749 13.9134 12.7044 13.5515 13.5328 12.9992C14.2477 12.5226 14.9517 11.9194 15.4215 11.4932C16.0111 10.9582 16.0111 10.0418 15.4215 9.5068C14.9517 9.08056 14.2477 8.47741 13.5328 8.00077C12.827 7.53027 11.8828 7.07195 11.1988 6.76265Z" fill="white"/>
</g>
</mask>
<g mask="url(#mask0_1_3175)">
<rect y="0.5" width="24" height="24" rx="4" fill="white"/>
</g>
<defs>
<clipPath id="clip0_1_3175">
<rect width="24" height="24" fill="white" transform="translate(0 0.5)"/>
</clipPath>
</defs>
</svg>
