<svg width="24" height="25" viewBox="0 0 24 25" fill="none" xmlns="http://www.w3.org/2000/svg">
<mask id="mask0_1_3258" style="mask-type:alpha" maskUnits="userSpaceOnUse" x="0" y="0" width="24" height="25">
<g clip-path="url(#clip0_1_3258)">
<path fill-rule="evenodd" clip-rule="evenodd" d="M1.20007 7.50002C1.20007 5.18042 3.08047 3.30002 5.40007 3.30002H18.6001C20.9197 3.30002 22.8001 5.18042 22.8001 7.50002V14.7C22.8001 17.0196 20.9196 18.9 18.6 18.9H5.40006C3.08047 18.9 1.20007 17.0196 1.20007 14.7V7.50002ZM5.40007 4.50002C3.74321 4.50002 2.40007 5.84316 2.40007 7.50002V14.7C2.40007 16.3569 3.74321 17.7 5.40006 17.7H18.6C20.2569 17.7 21.6 16.3569 21.6 14.7V7.50002C21.6 5.84316 20.2569 4.50002 18.6001 4.50002H5.40007Z" fill="#E1E5EA"/>
<path d="M10.5 7V15L15.5 11L10.5 7Z" stroke="#E1E5EA" stroke-width="1.2" stroke-linecap="round" stroke-linejoin="round"/>
<path fill-rule="evenodd" clip-rule="evenodd" d="M6.12222 20.8778C5.77858 20.8778 5.5 21.1564 5.5 21.5C5.5 21.8436 5.77858 22.1222 6.12222 22.1222H18.1222C18.4659 22.1222 18.7444 21.8436 18.7444 21.5C18.7444 21.1564 18.4659 20.8778 18.1222 20.8778H6.12222Z" fill="#E1E5EA"/>
</g>
</mask>
<g mask="url(#mask0_1_3258)">
<rect y="0.5" width="24" height="24" rx="4" fill="white"/>
</g>
<defs>
<clipPath id="clip0_1_3258">
<rect width="24" height="24" fill="white" transform="translate(0 0.5)"/>
</clipPath>
</defs>
</svg>
