<svg width="24" height="25" viewBox="0 0 24 25" fill="none" xmlns="http://www.w3.org/2000/svg">
<mask id="mask0_1_3291" style="mask-type:alpha" maskUnits="userSpaceOnUse" x="0" y="0" width="24" height="25">
<g clip-path="url(#clip0_1_3291)">
<g clip-path="url(#clip1_1_3291)">
<mask id="mask1_1_3291" style="mask-type:luminance" maskUnits="userSpaceOnUse" x="0" y="0" width="24" height="25">
<path d="M24 0.5H0V24.5H24V0.5Z" fill="white"/>
</mask>
<g mask="url(#mask1_1_3291)">
<path d="M18.3489 10.9116C18.4845 10.7315 18.6094 10.5428 18.7223 10.3473C20.224 7.74631 19.359 4.42556 16.7942 2.94476C14.2294 1.46396 10.921 2.37527 9.41937 4.97622C9.30646 5.17177 9.20554 5.37423 9.11736 5.58177C8.27651 5.60599 7.48791 6.06601 7.04883 6.82652C6.51988 7.74269 6.63796 8.85529 7.26106 9.62225L5.03074 21.5084C4.88638 22.3889 5.90894 22.9793 6.59928 22.414L12.7942 17.0992C13.7094 17.2904 14.6905 16.8793 15.1889 16.0162L16.0253 14.5675C16.9375 14.62 17.8282 14.1515 18.3051 13.3253C18.7442 12.5649 18.7483 11.6519 18.3489 10.9116ZM15.8723 13.2476L15.3976 13.1171L14.0901 15.3818C13.8261 15.8391 13.2443 15.9994 12.7932 15.739C12.3422 15.4786 12.1901 14.8946 12.4542 14.4373L13.8051 12.0974L8.56764 9.07353C8.00888 8.75093 7.82045 8.02753 8.1476 7.4609C8.38918 7.04246 8.85136 6.81373 9.31883 6.87246L10.9005 7.79092C11.5627 7.97702 12.0361 7.15708 11.5438 6.67667L10.3324 5.97196C10.3886 5.84877 10.4504 5.728 10.5181 5.61059C11.6651 3.62404 14.1919 2.928 16.1509 4.05901C18.1098 5.19002 18.7705 7.72633 17.6235 9.71289C17.4705 9.978 17.2888 10.2263 17.0837 10.4511L16.6907 10.8815L17.073 11.3122C17.4098 11.6917 17.4634 12.2458 17.2064 12.691C16.9355 13.1602 16.3868 13.3891 15.8723 13.2476ZM8.39665 10.4605L12.063 12.5772L11.3554 13.8029C10.8546 14.6704 10.9928 15.7321 11.624 16.4289L6.45832 20.847L8.39665 10.4605Z" fill="white" stroke="white" stroke-width="0.05"/>
</g>
</g>
</g>
</mask>
<g mask="url(#mask0_1_3291)">
<rect y="0.5" width="24" height="24" rx="4" fill="white"/>
</g>
<defs>
<clipPath id="clip0_1_3291">
<rect width="24" height="24" fill="white" transform="translate(0 0.5)"/>
</clipPath>
<clipPath id="clip1_1_3291">
<rect width="24" height="24" fill="white" transform="translate(0 0.5)"/>
</clipPath>
</defs>
</svg>
