<svg width="24" height="25" viewBox="0 0 24 25" fill="none" xmlns="http://www.w3.org/2000/svg">
<mask id="mask0_1_3184" style="mask-type:alpha" maskUnits="userSpaceOnUse" x="0" y="0" width="24" height="25">
<g clip-path="url(#clip0_1_3184)">
<path fill-rule="evenodd" clip-rule="evenodd" d="M21.442 3.05806C21.3118 2.92786 21.1308 2.8617 20.9473 2.87723L20.9441 2.8775L20.9364 2.87817L20.9078 2.88072C20.883 2.88297 20.8469 2.88632 20.8006 2.89082C20.7081 2.89981 20.5748 2.91341 20.4093 2.93201C20.0786 2.9692 19.6182 3.02654 19.0983 3.10735C18.0717 3.2669 16.7638 3.5251 15.7698 3.91895C14.2781 4.50999 12.8541 5.65674 11.6389 6.875H6C5.83424 6.875 5.67527 6.94085 5.55806 7.05806L2.55806 10.0581C2.44085 10.1753 2.375 10.3342 2.375 10.5V11.5C2.375 11.7979 2.58529 12.0544 2.87743 12.1129L7.69188 13.0758L11.4243 16.8081L12.3871 21.6225C12.4456 21.9147 12.7021 22.125 13 22.125H14C14.1658 22.125 14.3247 22.0591 14.4419 21.9419L17.4419 18.9419C17.5592 18.8247 17.625 18.6657 17.625 18.5V12.8611C18.8433 11.6459 19.99 10.2219 20.5811 8.73023C20.9749 7.73623 21.2331 6.42836 21.3927 5.40176C21.4735 4.88186 21.5308 4.42144 21.568 4.09075C21.5866 3.92526 21.6002 3.79189 21.6092 3.69937C21.6137 3.6531 21.617 3.61702 21.6193 3.59222L21.6218 3.56361L21.6227 3.55373L21.6228 3.55271C21.6383 3.36924 21.5722 3.18826 21.442 3.05806ZM7.7026 11.8031C7.72321 11.7715 7.74511 11.738 7.76826 11.7027C7.96101 11.4093 8.24117 10.9948 8.5931 10.5067C9.08946 9.81837 9.73197 8.97904 10.4764 8.125H6.25888L3.625 10.7589V10.9876L7.7026 11.8031ZM13.5124 20.875L12.6969 16.7974L12.7973 16.7318C13.0907 16.539 13.5053 16.2588 13.9933 15.9069C14.6816 15.4106 15.521 14.7681 16.375 14.0236V18.2411L13.7411 20.875H13.5124ZM16.5591 12.1566L16.5686 12.1474C17.8088 10.9379 18.8946 9.59317 19.419 8.26977C19.7586 7.41251 20.0004 6.22038 20.1575 5.20979C20.2162 4.83228 20.262 4.48697 20.2963 4.2037C20.013 4.238 19.6677 4.28384 19.2902 4.34252C18.2796 4.49958 17.0875 4.74138 16.2302 5.08105C14.9051 5.60609 13.5586 6.69405 12.348 7.93623C11.2432 9.06973 10.288 10.2934 9.60699 11.2378C9.2672 11.709 8.99735 12.1084 8.81301 12.389L8.79712 12.4132L12.0868 15.7029L12.111 15.687C12.3916 15.5027 12.791 15.2328 13.2622 14.893C14.2053 14.2129 15.4269 13.2595 16.5591 12.1566ZM6.79764 16.0929C7.12511 15.9838 7.30208 15.6298 7.19293 15.3023C7.08377 14.9749 6.72982 14.7979 6.40236 14.9071C4.33655 15.5957 3.33704 17.3124 2.85707 18.7523C2.61522 19.4779 2.49545 20.1588 2.4357 20.6568C2.40572 20.9067 2.39056 21.1128 2.38289 21.2585C2.37906 21.3315 2.37708 21.3894 2.37607 21.4303C2.37556 21.4507 2.3753 21.467 2.37516 21.4787L2.37502 21.4928L2.375 21.4973V21.4995C2.375 21.8447 2.65482 22.125 3 22.125V21.5C3 22.125 3.00114 22.125 3.00114 22.125H3.00272H3.0072L3.02134 22.1248C3.03303 22.1247 3.04924 22.1244 3.06969 22.1239C3.11058 22.1229 3.16853 22.1209 3.24144 22.1171C3.38715 22.1094 3.59334 22.0943 3.84322 22.0643C4.34115 22.0045 5.02208 21.8848 5.74764 21.6429C7.18755 21.1629 8.90433 20.1634 9.59293 18.0976C9.70208 17.7702 9.52511 17.4162 9.19764 17.3071C8.87018 17.1979 8.51623 17.3749 8.40707 17.7023C7.89567 19.2365 6.61245 20.037 5.35236 20.4571C4.72792 20.6652 4.13385 20.7704 3.69428 20.8232L3.67444 20.8255L3.6768 20.8057C3.72955 20.3661 3.83478 19.7721 4.04293 19.1476C4.46296 17.8875 5.26345 16.6043 6.79764 16.0929ZM3 21.5L2.375 21.4995C2.375 21.4995 2.375 21.5 3 21.5Z" fill="#E1E5EA"/>
</g>
</mask>
<g mask="url(#mask0_1_3184)">
<rect y="0.5" width="24" height="24" rx="4" fill="white"/>
</g>
<defs>
<clipPath id="clip0_1_3184">
<rect width="24" height="24" fill="white" transform="translate(0 0.5)"/>
</clipPath>
</defs>
</svg>
